<?xml version="1.0" encoding="utf-8"?>
<svg xmlns="http://www.w3.org/2000/svg" xmlns:xlink="http://www.w3.org/1999/xlink" viewBox="0 0 256 256" width="256px" height="256px">
<rect x="0" y="0" width="256" height="256" fill="#eee"/>
<defs><g id="id-0.004636446938534711"><!--Generator: Adobe Illustrator 21.0.0, SVG Export Plug-In . SVG Version: 6.00 Build 0)--><style type="text/css">.st23{fill:#333}.st24{fill:#fff}.st54{stroke-miterlimit:10;stroke:#333;fill:none;stroke-width:3;stroke-linecap:round}.st55{opacity:.5}.st56{fill:none;stroke:#000;stroke-linecap:round;stroke-miterlimit:10}.st57{fill:#e15b64}</style><path class="st54" d="M49.161,78.087c2.608-1.48,5.904-1.68,8.671-0.525c3.566,1.488,6.168,5.016,9.954,5.788 c4.36,0.889,8.589-2.284,11.046-5.994c4.352-6.57,5.098-14.967,4.03-22.775c-0.355-2.595-0.933-5.254-2.48-7.367 c-1.547-2.113-4.285-3.545-6.812-2.859s-4.184,3.996-2.691,6.148"/><path class="st23" d="M46.556,23.089l-8.518,2.632c-0.782,0.242-1.581-0.325-1.611-1.144L35.94,11.253 c-0.044-1.19,1.654-1.715,2.446-0.756l8.763,10.611C47.712,21.791,47.403,22.828,46.556,23.089z"/><path class="st23" d="M51.775,23.089l8.518,2.632c0.783,0.242,1.581-0.325,1.611-1.144l0.487-13.325 c0.044-1.19-1.654-1.715-2.446-0.756l-8.763,10.611C50.619,21.791,50.929,22.828,51.775,23.089z"/><path class="st23" d="M66.324,70.407C66.324,90.213,58.642,90,49.166,90s-17.158,0.213-17.158-19.593 c0-15.527,7.682-32.532,17.158-32.532S66.324,54.88,66.324,70.407z"/><ellipse class="st23" cx="49.166" cy="29.372" rx="14.418" ry="12.939"/><path class="st55" d="M55.887,40.815c4.575-2.169,7.697-6.476,7.697-11.443c0-2.156-0.596-4.185-1.636-5.973l0.444-12.146 c0.044-1.19-1.654-1.715-2.446-0.756l-5.62,6.805c-0.395-0.136-0.798-0.257-1.208-0.363l-0.171,4.795 c1.04,1.833,1.636,3.912,1.636,6.123c0,5.091-3.122,9.505-7.697,11.729c6.136,5.668,10.437,18.423,10.437,30.332 c0,16.976-5.373,19.602-12.674,20.008C46.09,90.004,47.602,90,49.166,90c9.476,0,17.158,0.213,17.158-19.593 C66.324,58.789,62.022,46.345,55.887,40.815z"/><ellipse class="st24" cx="43.501" cy="27.882" rx="3.93" ry="3.339"/><ellipse cx="43.501" cy="27.83" rx="1.669" ry="3.287"/><ellipse class="st24" cx="54.83" cy="27.882" rx="3.93" ry="3.339"/><ellipse cx="54.83" cy="27.83" rx="1.669" ry="3.287"/><line class="st56" x1="49.161" y1="35.563" x2="46.625" y2="37.667"/><line class="st56" x1="49.161" y1="35.563" x2="51.697" y2="37.667"/><line class="st56" x1="49.161" y1="35.563" x2="49.161" y2="33.417"/><ellipse class="st57" cx="49.166" cy="32.918" rx="2" ry="1.25"/><metadata xmlns:d="https://loading.io/stock/"><d:name>cat</d:name><d:tags>cat,kitty,puss,feline,felid,felidae,animal,blackcat,witch</d:tags><d:license>by</d:license><d:slug>i4wvsp</d:slug></metadata></g></defs>

<!-- Generator: Adobe Illustrator 21.0.0, SVG Export Plug-In . SVG Version: 6.00 Build 0)  -->






<polygon fill="#B3B4B4" points="95.261,98.953 73.345,96.2 74.22,90.577 94.461,93.724 "/>
<path fill="#B3B4B4" d="M38.105,224.49c-0.05,0-0.099,0-0.149-0.001c-2.943-0.039-5.694-1.221-7.748-3.33
	c-4.239-4.352-4.147-11.342,0.205-15.581c2.108-2.054,4.884-3.157,7.833-3.124c2.943,0.039,5.694,1.222,7.748,3.33
	c4.239,4.352,4.147,11.342-0.205,15.58C43.716,223.383,40.992,224.49,38.105,224.49z M38.098,207.494
	c-1.567,0-3.044,0.6-4.169,1.695c-2.361,2.3-2.411,6.092-0.111,8.453c1.114,1.144,2.607,1.785,4.204,1.806
	c1.609,0.014,3.106-0.581,4.25-1.695c2.361-2.3,2.411-6.092,0.112-8.453l0,0c-1.114-1.144-2.607-1.785-4.204-1.806
	C38.152,207.494,38.125,207.494,38.098,207.494z"/>
<ellipse transform="matrix(0.7249 -0.6888 0.6888 0.7249 31.7828 174.5914)" fill="#B3B4B4" cx="234.5" cy="47.5" rx="4.4" ry="4.4"/>
<path fill="#B3B4B4" d="M156.299,159.176l-1.714-5.053c3.929-1.333,6.042-5.614,4.709-9.543c-0.645-1.903-1.994-3.442-3.796-4.331
	c-1.803-0.89-3.844-1.024-5.747-0.378l-1.714-5.053c3.254-1.103,6.741-0.874,9.822,0.646c3.08,1.52,5.385,4.149,6.488,7.402
	C166.625,149.582,163.015,156.898,156.299,159.176z"/>
<ellipse transform="matrix(0.7249 -0.6888 0.6888 0.7249 -74.7837 111.7244)" fill="#B3B4B4" cx="102.5" cy="149.5" rx="4.4" ry="4.4"/>
<polygon fill="#B3B4B4" points="231.486,249.178 247.065,235.877 252.857,238.786 235.18,253.505 "/>
<polygon fill="#B3B4B4" points="115.367,21.954 103.961,43.014 100.239,36.891 110.431,19.123 "/>
<path fill="#B3B4B4" d="M222.104,130.57c-0.044,0-0.088,0-0.132-0.001c-2.596-0.034-5.024-1.077-6.835-2.937
	c-3.74-3.84-3.659-10.006,0.181-13.746c1.86-1.812,4.308-2.785,6.91-2.756c2.596,0.034,5.024,1.078,6.835,2.938
	c3.74,3.839,3.659,10.006-0.181,13.745C227.054,129.594,224.651,130.57,222.104,130.57z M222.099,115.576
	c-1.382,0-2.686,0.53-3.678,1.496c-2.083,2.029-2.127,5.374-0.098,7.458c0.983,1.009,2.3,1.575,3.708,1.594
	c1.42,0.013,2.74-0.512,3.749-1.495c2.083-2.029,2.127-5.374,0.098-7.457l0,0c-0.983-1.009-2.3-1.575-3.708-1.594
	C222.146,115.576,222.122,115.576,222.099,115.576z"/>
<path fill="#B3B4B4" d="M184.509,10.022l-4.015,1.058c-0.822-3.122-4.032-4.993-7.154-4.17c-1.512,0.398-2.779,1.362-3.567,2.713
	c-0.788,1.352-1.003,2.929-0.603,4.44l-4.015,1.058c-0.681-2.585-0.315-5.28,1.031-7.589c1.346-2.309,3.511-3.956,6.096-4.637
	C177.619,1.489,183.103,4.687,184.509,10.022z"/>


<g transform="matrix(0.9912 0.1325 -0.1325 0.9912 30.542 -14.083) translate(121.067,222.398) scale(0.6786666666666666)"><g data-icon="">  <use xlink:href="#id-0.004636446938534711" x="-50" y="-50"/>
</g></g><g transform="matrix(-0.0456 0.999 -0.999 -0.0456 243.7065 -82.5047) translate(161.268,75.17099999999999) scale(0.47706666666666664)"><g data-icon="">  <use xlink:href="#id-0.004636446938534711" x="-50" y="-50"/>
</g></g><g transform="matrix(0.5905 -0.8071 0.8071 0.5905 -67.6584 252.8308) translate(215.293,193.0815) scale(0.5214666666666667)"><g data-icon="">  <use xlink:href="#id-0.004636446938534711" x="-50" y="-50"/>
</g></g><g transform="matrix(-0.4749 -0.8801 0.8801 -0.4749 38.8277 99.7848) translate(49.185,38.308499999999995) scale(0.5980444444444444)"><g data-icon="">  <use xlink:href="#id-0.004636446938534711" x="-50" y="-50"/>
</g></g><g transform="matrix(0.7381 -0.6747 0.6747 0.7381 -85.9069 63.1885) translate(38.434,142.243) scale(0.607688888888889)"><g data-icon="">  <use xlink:href="#id-0.004636446938534711" x="-50" y="-50"/>
</g></g>
</svg>